<svg data-v-423bf9ae="" xmlns="http://www.w3.org/2000/svg" viewBox="0 0 575 99" class="iconLeft"><!----><!----><!----><g data-v-423bf9ae="" id="4dd34dea-2ad2-4023-9808-efc070725547" fill="white" transform="matrix(5.272407679843658,0,0,5.272407679843658,114.17107506250031,23.01800761728737)"><path d="M6.44 4.12L6.44-0.42L8.32-0.42L8.32 10.50L6.44 10.50L6.44 5.74L2.73 5.74L2.73 10.50L0.85 10.50L0.85-0.42L2.73-0.42L2.73 4.12L6.44 4.12ZM16.06 10.50L14.45 10.50L14.31 9.65L14.31 9.65Q13.41 10.68 11.89 10.68L11.89 10.68L11.89 10.68Q10.77 10.68 10.21 10.07L10.21 10.07L10.21 10.07Q9.65 9.45 9.65 8.50L9.65 8.50L9.65 8.36L9.65 8.36Q9.65 7.24 10.32 6.73L10.32 6.73L10.32 6.73Q11.00 6.22 12.24 6.03L12.24 6.03L14.13 5.74L14.13 5.71L14.13 5.71Q14.13 4.98 13.85 4.65L13.85 4.65L13.85 4.65Q13.58 4.31 12.89 4.31L12.89 4.31L12.89 4.31Q11.66 4.31 11.66 5.53L11.66 5.53L9.93 5.53L9.93 5.40L9.93 5.40Q9.93 4.33 10.62 3.61L10.62 3.61L10.62 3.61Q11.31 2.90 12.94 2.90L12.94 2.90L12.94 2.90Q14.59 2.90 15.27 3.61L15.27 3.61L15.27 3.61Q15.95 4.33 15.95 5.71L15.95 5.71L15.95 8.40L16.06 10.50ZM12.52 9.18L12.52 9.18L12.52 9.18Q13.55 9.18 14.13 8.41L14.13 8.41L14.13 6.85L12.57 7.10L12.57 7.10Q11.47 7.28 11.47 8.16L11.47 8.16L11.47 8.27L11.47 8.27Q11.47 8.65 11.73 8.92L11.73 8.92L11.73 8.92Q12.00 9.18 12.52 9.18ZM20.38 9.27L20.38 9.27L20.38 9.27Q21.01 9.27 21.34 9.02L21.34 9.02L21.34 9.02Q21.66 8.76 21.66 8.34L21.66 8.34L21.66 8.34Q21.66 7.87 21.35 7.67L21.35 7.67L21.35 7.67Q21.04 7.46 20.24 7.39L20.24 7.39L20.24 7.39Q18.70 7.27 18.05 6.80L18.05 6.80L18.05 6.80Q17.39 6.33 17.39 5.35L17.39 5.35L17.39 5.24L17.39 5.24Q17.39 4.09 18.21 3.49L18.21 3.49L18.21 3.49Q19.03 2.90 20.38 2.90L20.38 2.90L20.38 2.90Q23.39 2.90 23.39 5.43L23.39 5.43L23.39 5.50L21.62 5.50L21.62 5.50Q21.62 4.31 20.38 4.31L20.38 4.31L20.38 4.31Q19.81 4.31 19.49 4.55L19.49 4.55L19.49 4.55Q19.18 4.79 19.18 5.19L19.18 5.19L19.18 5.19Q19.18 5.63 19.47 5.83L19.47 5.83L19.47 5.83Q19.75 6.03 20.54 6.09L20.54 6.09L20.54 6.09Q22.05 6.22 22.76 6.66L22.76 6.66L22.76 6.66Q23.48 7.11 23.48 8.18L23.48 8.18L23.48 8.27L23.48 8.27Q23.48 9.39 22.69 10.04L22.69 10.04L22.69 10.04Q21.90 10.68 20.38 10.68L20.38 10.68L20.38 10.68Q18.86 10.68 18.07 10.00L18.07 10.00L18.07 10.00Q17.29 9.31 17.29 8.23L17.29 8.23L17.29 8.18L19.10 8.18L19.10 8.18Q19.10 9.27 20.38 9.27ZM24.88-0.70L26.70-0.70L26.70 3.84L26.70 3.84Q27.50 2.90 28.94 2.90L28.94 2.90L28.94 2.90Q30.09 2.90 30.65 3.61L30.65 3.61L30.65 3.61Q31.22 4.33 31.22 5.42L31.22 5.42L31.22 10.50L29.41 10.50L29.41 5.71L29.41 5.71Q29.41 5.15 29.12 4.82L29.12 4.82L29.12 4.82Q28.83 4.48 28.24 4.48L28.24 4.48L28.24 4.48Q27.22 4.48 26.70 5.33L26.70 5.33L26.70 10.50L24.88 10.50L24.88-0.70ZM39.02 6.43L37.48 6.43L37.48 10.50L35.60 10.50L35.60-0.42L39.02-0.42L39.02-0.42Q42.67-0.42 42.67 2.86L42.67 2.86L42.67 3.14L42.67 3.14Q42.67 6.43 39.02 6.43L39.02 6.43ZM37.48 1.22L37.48 4.79L39.09 4.79L39.09 4.79Q40.77 4.79 40.77 3.08L40.77 3.08L40.77 2.93L40.77 2.93Q40.77 1.22 39.09 1.22L39.09 1.22L37.48 1.22ZM47.57 2.90L47.57 2.90L47.57 2.90Q47.61 2.90 47.69 2.91L47.69 2.91L47.69 2.91Q47.77 2.91 47.78 2.91L47.78 2.91L47.78 4.68L47.47 4.68L47.47 4.68Q46.27 4.68 45.75 5.46L45.75 5.46L45.75 10.50L43.93 10.50L43.93 5.18L43.81 3.08L45.42 3.08L45.57 3.98L45.57 3.98Q46.31 2.90 47.57 2.90ZM54.66 9.68L54.66 9.68L54.66 9.68Q53.82 10.68 52.14 10.68L52.14 10.68L52.14 10.68Q50.46 10.68 49.62 9.68L49.62 9.68L49.62 9.68Q48.78 8.68 48.78 7.01L48.78 7.01L48.78 6.57L48.78 6.57Q48.78 4.89 49.62 3.89L49.62 3.89L49.62 3.89Q50.46 2.90 52.14 2.90L52.14 2.90L52.14 2.90Q53.82 2.90 54.66 3.89L54.66 3.89L54.66 3.89Q55.50 4.89 55.50 6.57L55.50 6.57L55.50 7.01L55.50 7.01Q55.50 8.68 54.66 9.68ZM50.60 7.01L50.60 7.01Q50.60 9.09 52.14 9.09L52.14 9.09L52.14 9.09Q53.68 9.09 53.68 7.01L53.68 7.01L53.68 6.57L53.68 6.57Q53.68 4.48 52.14 4.48L52.14 4.48L52.14 4.48Q50.60 4.48 50.60 6.57L50.60 6.57L50.60 7.01ZM59.29 0.98L59.29 3.08L61.35 3.08L61.35 4.68L59.29 4.68L59.29 7.88L59.29 7.88Q59.29 8.58 59.58 8.83L59.58 8.83L59.58 8.83Q59.88 9.09 60.49 9.09L60.49 9.09L60.49 9.09Q61.01 9.09 61.21 8.99L61.21 8.99L61.21 10.50L61.21 10.50Q60.84 10.68 60.06 10.68L60.06 10.68L60.06 10.68Q57.47 10.68 57.47 8.08L57.47 8.08L57.47 4.68L56.34 4.68L56.34 3.08L57.47 3.08L57.47 0.98L59.29 0.98ZM68.29 9.68L68.29 9.68L68.29 9.68Q67.45 10.68 65.77 10.68L65.77 10.68L65.77 10.68Q64.09 10.68 63.25 9.68L63.25 9.68L63.25 9.68Q62.41 8.68 62.41 7.01L62.41 7.01L62.41 6.57L62.41 6.57Q62.41 4.89 63.25 3.89L63.25 3.89L63.25 3.89Q64.09 2.90 65.77 2.90L65.77 2.90L65.77 2.90Q67.45 2.90 68.29 3.89L68.29 3.89L68.29 3.89Q69.13 4.89 69.13 6.57L69.13 6.57L69.13 7.01L69.13 7.01Q69.13 8.68 68.29 9.68ZM64.23 7.01L64.23 7.01Q64.23 9.09 65.77 9.09L65.77 9.09L65.77 9.09Q67.31 9.09 67.31 7.01L67.31 7.01L67.31 6.57L67.31 6.57Q67.31 4.48 65.77 4.48L65.77 4.48L65.77 4.48Q64.23 4.48 64.23 6.57L64.23 6.57L64.23 7.01ZM71.97 6.57L71.97 7.01L71.97 7.01Q71.97 9.09 73.47 9.09L73.47 9.09L73.47 9.09Q74.13 9.09 74.46 8.73L74.46 8.73L74.46 8.73Q74.79 8.37 74.79 7.80L74.79 7.80L76.51 7.80L76.51 8.09L76.51 8.09Q76.51 9.23 75.72 9.95L75.72 9.95L75.72 9.95Q74.93 10.68 73.43 10.68L73.43 10.68L73.43 10.68Q71.79 10.68 70.97 9.68L70.97 9.68L70.97 9.68Q70.15 8.68 70.15 7.01L70.15 7.01L70.15 6.57L70.15 6.57Q70.15 4.89 70.97 3.89L70.97 3.89L70.97 3.89Q71.79 2.90 73.43 2.90L73.43 2.90L73.43 2.90Q74.94 2.90 75.73 3.65L75.73 3.65L75.73 3.65Q76.51 4.41 76.51 5.60L76.51 5.60L76.51 5.91L74.79 5.91L74.79 5.91Q74.79 5.24 74.46 4.86L74.46 4.86L74.46 4.86Q74.13 4.48 73.47 4.48L73.47 4.48L73.47 4.48Q71.97 4.48 71.97 6.57L71.97 6.57ZM83.38 9.68L83.38 9.68L83.38 9.68Q82.54 10.68 80.86 10.68L80.86 10.68L80.86 10.68Q79.18 10.68 78.34 9.68L78.34 9.68L78.34 9.68Q77.50 8.68 77.50 7.01L77.50 7.01L77.50 6.57L77.50 6.57Q77.50 4.89 78.34 3.89L78.34 3.89L78.34 3.89Q79.18 2.90 80.86 2.90L80.86 2.90L80.86 2.90Q82.54 2.90 83.38 3.89L83.38 3.89L83.38 3.89Q84.22 4.89 84.22 6.57L84.22 6.57L84.22 7.01L84.22 7.01Q84.22 8.68 83.38 9.68ZM79.32 7.01L79.32 7.01Q79.32 9.09 80.86 9.09L80.86 9.09L80.86 9.09Q82.40 9.09 82.40 7.01L82.40 7.01L82.40 6.57L82.40 6.57Q82.40 4.48 80.86 4.48L80.86 4.48L80.86 4.48Q79.32 4.48 79.32 6.57L79.32 6.57L79.32 7.01ZM87.40 10.50L85.58 10.50L85.58-0.70L87.40-0.70L87.40 10.50Z"></path></g><!----><g data-v-423bf9ae="" id="6f9e9b95-f133-4564-8926-eca700c2ba7e" transform="matrix(1.0469779120551215,0,0,1.0469779120551215,-218.1394757828727,-218.1404541374378)" stroke="none" fill="white"><path d="M300.597 275.384v-9.805a.808.808 0 0 0-.808-.808h-13.294a32.032 32.032 0 0 0 1.661-8.021h5.041a3.331 3.331 0 0 0 3.224 2.519 3.33 3.33 0 0 0 3.327-3.327 3.33 3.33 0 0 0-3.327-3.327 3.33 3.33 0 0 0-3.224 2.52h-4.959a32.302 32.302 0 0 0-.744-7.809h6.408a.808.808 0 0 0 .808-.808v-8.261a3.332 3.332 0 0 0 2.52-3.224 3.331 3.331 0 0 0-3.327-3.327 3.33 3.33 0 0 0-3.327 3.327 3.329 3.329 0 0 0 2.52 3.224v7.454h-6.001c-2.84-10.294-10.664-18.542-20.704-21.967v-10.722h8.996a3.33 3.33 0 0 0 3.223 2.519 3.33 3.33 0 0 0 3.327-3.327 3.33 3.33 0 0 0-3.327-3.326 3.33 3.33 0 0 0-3.223 2.517h-9.806a.808.808 0 0 0-.808.808v11.028a32.078 32.078 0 0 0-8.021-1.203v-3.233a3.33 3.33 0 0 0 2.519-3.224 3.33 3.33 0 0 0-3.326-3.327 3.331 3.331 0 0 0-3.328 3.327 3.33 3.33 0 0 0 2.52 3.224v3.235a32.103 32.103 0 0 0-7.81 1.175v-5.114a.808.808 0 0 0-.808-.808h-8.26a3.33 3.33 0 0 0-3.224-2.52c-1.834 0-3.327 1.493-3.327 3.327s1.493 3.327 3.327 3.327a3.33 3.33 0 0 0 3.224-2.519h7.453v4.803c-10.055 3.395-17.904 11.62-20.775 21.902h-11.914v-8.996a3.33 3.33 0 0 0 2.519-3.224c0-1.834-1.492-3.326-3.327-3.326s-3.326 1.492-3.326 3.327a3.329 3.329 0 0 0 2.519 3.223v9.804c0 .446.362.808.808.808h12.316a32.24 32.24 0 0 0-.762 8.022h-4.964a3.329 3.329 0 0 0-3.223-2.517c-1.834 0-3.327 1.492-3.327 3.326s1.492 3.328 3.327 3.328a3.328 3.328 0 0 0 3.223-2.52h5.052a32.08 32.08 0 0 0 1.616 7.808H218.1a.808.808 0 0 0-.808.808v8.262a3.331 3.331 0 0 0-2.519 3.224c0 1.835 1.492 3.327 3.327 3.327s3.327-1.492 3.327-3.327a3.33 3.33 0 0 0-2.52-3.224v-7.454h7.167c3.493 8.67 10.647 15.485 19.538 18.519v14.171h-8.996a3.33 3.33 0 0 0-3.223-2.52 3.332 3.332 0 0 0-3.327 3.328 3.33 3.33 0 0 0 3.327 3.326 3.329 3.329 0 0 0 3.223-2.518h9.804a.81.81 0 0 0 .808-.81V285.31a32.087 32.087 0 0 0 8.023 1.204v6.681a3.29 3.29 0 0 0-1.545.872 3.302 3.302 0 0 0-.974 2.353 3.33 3.33 0 0 0 3.327 3.326 3.33 3.33 0 0 0 3.327-3.326 3.33 3.33 0 0 0-2.519-3.224v-6.685a32.127 32.127 0 0 0 7.807-1.174v8.562c0 .161.049.31.13.436.004.005.006.011.009.016.005.008.012.014.018.021a.806.806 0 0 0 .653.337h.001l8.259-.002a3.332 3.332 0 0 0 3.225 2.521 3.33 3.33 0 0 0 3.327-3.327 3.33 3.33 0 0 0-3.327-3.327 3.33 3.33 0 0 0-3.224 2.519h-7.453v-8.252c8.903-3.006 16.075-9.799 19.596-18.453h13.094v8.996a3.331 3.331 0 0 0-2.52 3.224 3.33 3.33 0 0 0 3.327 3.327 3.33 3.33 0 0 0 3.326-3.327 3.33 3.33 0 0 0-2.518-3.224zm-4.176-21.154c.943 0 1.712.768 1.712 1.712s-.769 1.711-1.712 1.711a1.714 1.714 0 0 1-1.711-1.706v-.005-.005a1.713 1.713 0 0 1 1.711-1.707zm-4.23-19.198c0-.943.768-1.711 1.712-1.711.943 0 1.712.768 1.712 1.711 0 .944-.769 1.712-1.712 1.712a1.713 1.713 0 0 1-1.712-1.712zm-57.156-15.222a1.714 1.714 0 0 1-1.712-1.711c0-.944.768-1.712 1.712-1.712.943 0 1.711.768 1.711 1.712s-.768 1.711-1.711 1.711zm-24.532 13.582a1.712 1.712 0 1 1 1.711 1.711 1.712 1.712 0 0 1-1.711-1.711zm9.309 43.575c0 .944-.768 1.712-1.711 1.712s-1.711-.768-1.711-1.712c0-.943.768-1.712 1.711-1.712a1.714 1.714 0 0 1 1.711 1.712zm13.582 24.531a1.714 1.714 0 0 1-1.711-1.711c0-.944.768-1.712 1.711-1.712.944 0 1.711.769 1.711 1.712s-.767 1.711-1.711 1.711zm45.215-90.996c.944 0 1.712.767 1.712 1.71 0 .944-.768 1.712-1.712 1.712a1.712 1.712 0 0 1 0-3.422zm-24.378 5.077c0-.943.768-1.711 1.712-1.711.943 0 1.711.768 1.711 1.711s-.768 1.711-1.711 1.711a1.712 1.712 0 0 1-1.712-1.711zm-38.65 42.191a1.714 1.714 0 0 1-1.711-1.712c0-.943.768-1.711 1.711-1.711.943 0 1.711.768 1.711 1.711 0 .944-.767 1.712-1.711 1.712zm42.19 38.65c0 .944-.768 1.712-1.711 1.712a1.714 1.714 0 0 1-1.21-2.922 1.698 1.698 0 0 1 1.209-.501h.002c.943 0 1.71.767 1.71 1.711zm19.198-4.231c.943 0 1.711.768 1.711 1.712 0 .943-.768 1.712-1.711 1.712a1.715 1.715 0 0 1-1.712-1.712c0-.944.768-1.712 1.712-1.712zm-20.967-7.28c-16.892 0-30.634-13.742-30.634-30.634 0-16.891 13.742-30.634 30.634-30.634 16.891 0 30.633 13.743 30.633 30.634 0 16.892-13.742 30.634-30.633 30.634zm43.786-4.591c-.943 0-1.712-.768-1.712-1.711s.769-1.711 1.712-1.711 1.711.768 1.711 1.711-.767 1.711-1.711 1.711z"></path><path d="M279.366 266.809a.808.808 0 0 0-1.104.295c-3.269 5.659-8.495 9.826-14.718 11.734l-.008.003-.184.056c-.033.01-.064.021-.096.034a.897.897 0 0 0-.097.022l-.194.055a.808.808 0 1 0 .437 1.555l.204-.058a.88.88 0 0 0 .102-.036.975.975 0 0 0 .104-.024c.069-.021.138-.041.206-.063l.009-.002c6.609-2.03 12.162-6.458 15.634-12.469a.807.807 0 0 0-.295-1.102zM279.646 240.612a.807.807 0 1 0-1.398.81 25.684 25.684 0 0 1 3.441 12.854c0 1.943-.217 3.879-.646 5.756l-.001.002-.045.195a.787.787 0 0 0-.018.099.715.715 0 0 0-.029.096l-.05.197a.807.807 0 1 0 1.567.393l.05-.204a.647.647 0 0 0 .02-.105.683.683 0 0 0 .031-.103l.048-.204v-.002l.001-.003v-.002a27.41 27.41 0 0 0 .688-6.115 27.284 27.284 0 0 0-3.659-13.664zM256.03 279.964h-.028a25.598 25.598 0 0 1-17.49-6.873l-.145-.136a.7.7 0 0 0-.079-.065.678.678 0 0 0-.068-.074l-.144-.14a.806.806 0 0 0-1.142.015.806.806 0 0 0 .014 1.142l.154.149c.026.024.054.047.082.068a.865.865 0 0 0 .072.077 27.21 27.21 0 0 0 18.746 7.452h.028a.807.807 0 1 0 0-1.615zM230.313 254.275c0-1.935.216-3.863.642-5.731l.045-.195a.835.835 0 0 0 .017-.1.975.975 0 0 0 .03-.096l.048-.194a.807.807 0 1 0-1.565-.397l-.052.208a.965.965 0 0 0-.019.105 1.098 1.098 0 0 0-.031.102l-.047.202-.001.005a27.484 27.484 0 0 0-.682 6.09c0 4.814 1.271 9.548 3.674 13.688a.807.807 0 1 0 1.396-.811 25.663 25.663 0 0 1-3.455-12.876zM232.624 241.766a.806.806 0 0 0 1.103-.297c3.263-5.662 8.485-9.835 14.706-11.75h.001l.191-.058a.7.7 0 0 0 .094-.035.722.722 0 0 0 .098-.022l.193-.055a.808.808 0 0 0-.439-1.555l-.205.059a.717.717 0 0 0-.101.037.78.78 0 0 0-.104.024l-.198.06-.006.001h-.001c-6.612 2.036-12.162 6.471-15.629 12.487a.808.808 0 0 0 .297 1.104zM255.945 228.587h.056a25.603 25.603 0 0 1 17.51 6.891l.146.137a.96.96 0 0 0 .078.065c.021.025.043.05.067.074l.146.141a.804.804 0 0 0 1.142-.015.807.807 0 0 0-.016-1.142l-.152-.147a.881.881 0 0 0-.082-.069.862.862 0 0 0-.071-.078l-.151-.143-.004-.003h-.001l-.002-.001a27.213 27.213 0 0 0-18.613-7.324h-.052a.808.808 0 0 0-.001 1.614zM277.092 254.275c0 4.166-1.213 8.194-3.507 11.649l-.002.003-.109.163a.671.671 0 0 0-.051.086c-.021.024-.042.05-.062.078l-.113.163a.807.807 0 1 0 1.32.929l.122-.174c.021-.029.038-.061.055-.092a.774.774 0 0 0 .064-.084 5.58 5.58 0 0 0 .12-.179l.001-.001a22.602 22.602 0 0 0 3.776-12.543 22.68 22.68 0 0 0-1.109-7.028.808.808 0 0 0-1.537.5 21.04 21.04 0 0 1 1.032 6.53zM249.315 275.98l.204.062c.035.011.07.019.104.023a.66.66 0 0 0 .1.036l.198.056a.014.014 0 0 0 .006.002l.001.001c1.968.545 4.011.82 6.072.82 4.842 0 9.464-1.503 13.364-4.347.36-.264.439-.769.177-1.129s-.769-.439-1.129-.177A20.923 20.923 0 0 1 256 275.364c-1.915 0-3.812-.256-5.64-.762l-.19-.054a.69.69 0 0 0-.098-.022.732.732 0 0 0-.093-.033l-.188-.058a.808.808 0 0 0-.476 1.545zM248.635 232.792l-.2.07a.78.78 0 0 0-.098.042.656.656 0 0 0-.102.03l-.189.069-.011.004c-6.436 2.412-11.537 7.754-13.646 14.29a.808.808 0 1 0 1.538.496c1.958-6.067 6.69-11.027 12.663-13.269l.012-.004.185-.068a.946.946 0 0 0 .092-.04.846.846 0 0 0 .095-.027l.188-.065a.807.807 0 1 0-.527-1.528zM242.679 272.664a.807.807 0 1 0 .949-1.308c-5.245-3.806-8.414-9.689-8.697-16.143v-.013l-.008-.196a.792.792 0 0 0-.009-.099.806.806 0 0 0 .003-.099l-.004-.198a.808.808 0 0 0-1.615.025l.004.212a.928.928 0 0 0 .009.106.92.92 0 0 0-.003.105c.002.067.004.133.008.2v.013c.301 6.954 3.714 13.294 9.363 17.395zM255.952 233.185h.049c6.469 0 12.49 2.908 16.521 7.978l.001.002.122.155c.021.026.043.051.065.074a.863.863 0 0 0 .056.083l.119.158a.805.805 0 0 0 1.13.16.807.807 0 0 0 .16-1.131l-.128-.17a.756.756 0 0 0-.07-.08.72.72 0 0 0-.06-.088l-.126-.16-.006-.006c-4.338-5.459-10.82-8.59-17.79-8.59h-.044a.808.808 0 1 0 .001 1.615zM273.936 254.261c0-.446-.361-.801-.808-.801s-.808.368-.808.814c0 6.242-3.638 12.021-9.269 14.722l-.173.082c-.029.014-.058.028-.084.045a1.08 1.08 0 0 0-.089.034l-.175.078a.808.808 0 0 0 .649 1.479l.19-.085a.832.832 0 0 0 .093-.05.67.67 0 0 0 .099-.038l.181-.085.006-.003.001-.001.003-.001c6.186-2.969 10.183-9.318 10.183-16.178v-.012h.001z"></path><path d="M255.948 237.956h.053c6.247 0 12.028 3.643 14.728 9.28l.082.173a.828.828 0 0 0 .045.083c.009.03.021.06.034.09l.077.173a.806.806 0 1 0 1.48-.645l-.085-.192a.893.893 0 0 0-.049-.092.932.932 0 0 0-.038-.1l-.089-.188-.001-.002c-2.967-6.194-9.319-10.196-16.184-10.196h-.058a.807.807 0 0 0 .005 1.616zM248.798 237.846l-.192.085a.734.734 0 0 0-.092.049.812.812 0 0 0-.099.039l-.187.089-.001.001c-6.172 2.973-10.16 9.319-10.16 16.167v.04a.808.808 0 1 0 1.616 0v-.04c0-6.231 3.629-12.006 9.246-14.711l.173-.082a.602.602 0 0 0 .083-.045.74.74 0 0 0 .089-.034l.174-.078a.808.808 0 0 0-.65-1.48zM241.286 261.339c-.001 0-.001-.001 0 0a9.012 9.012 0 0 1-.083-.174.952.952 0 0 0-.045-.084.726.726 0 0 0-.034-.088l-.078-.176a.808.808 0 1 0-1.479.65l.084.189c.015.032.032.063.05.094a.972.972 0 0 0 .038.097l.088.187.001.003c2.971 6.18 9.319 10.173 16.172 10.173h.026a.808.808 0 1 0 0-1.616h-.027c-6.233 0-12.009-3.633-14.713-9.255zM250.83 264.942c-.057-.027-.112-.055-.168-.083a.671.671 0 0 0-.083-.036.706.706 0 0 0-.08-.048l-.164-.088a.808.808 0 1 0-.773 1.418l.186.1a.686.686 0 0 0 .096.043.784.784 0 0 0 .093.055 16.013 16.013 0 0 0 .189.094 13.337 13.337 0 0 0 5.875 1.346c4.799 0 9.271-2.585 11.672-6.745a.808.808 0 1 0-1.4-.808 11.895 11.895 0 0 1-10.272 5.938 11.752 11.752 0 0 1-5.171-1.186z"></path><path d="M255.961 242.424h.041c6.195 0 11.388 4.835 11.822 11.007l.012.188c.002.03.005.061.01.09a.72.72 0 0 0-.001.093l.006.185a.807.807 0 0 0 .807.788h.02a.808.808 0 0 0 .788-.827l-.006-.209a.847.847 0 0 0-.012-.104.763.763 0 0 0 .001-.107l-.013-.207v-.002c-.493-7.015-6.394-12.509-13.439-12.509h-.035a.808.808 0 0 0-.001 1.614zM248.961 242.793l-.178.111a.668.668 0 0 0-.085.063.848.848 0 0 0-.093.052l-.171.115-.002.001a13.467 13.467 0 0 0-5.897 11.14c0 2.377.628 4.714 1.816 6.759a.809.809 0 0 0 1.397-.812 11.855 11.855 0 0 1 3.593-15.751l.156-.104a.995.995 0 0 0 .073-.055.641.641 0 0 0 .081-.045l.157-.098a.807.807 0 1 0-.847-1.376z"></path><path d="M261.809 258.957a8.016 8.016 0 0 1-.111.135.817.817 0 0 0-.052.068c-.022.021-.043.041-.063.063-.037.044-.076.086-.115.128a.808.808 0 1 0 1.181 1.103l.145-.159a.835.835 0 0 0 .064-.083.792.792 0 0 0 .075-.078c.045-.054.09-.107.134-.163l.001-.001a9.093 9.093 0 0 0 2.009-5.694c0-5.004-4.07-9.075-9.082-9.075h-.025a.808.808 0 0 0 0 1.616h.033c4.113 0 7.459 3.346 7.459 7.459a7.387 7.387 0 0 1-1.653 4.681zM249.342 248.111l-.142.157a.858.858 0 0 0-.065.084.927.927 0 0 0-.075.078l-.134.163-.001.001a9.104 9.104 0 0 0-1.998 5.681c0 5.004 4.071 9.074 9.074 9.074h.017a.8.8 0 0 0 .8-.808.816.816 0 0 0-.816-.808c-4.113 0-7.459-3.346-7.459-7.459 0-1.718.568-3.332 1.641-4.668l.001-.001.112-.137a.817.817 0 0 0 .052-.068c.021-.02.042-.041.062-.063l.118-.13a.808.808 0 1 0-1.187-1.096z"></path><path d="M251.073 254.987a.772.772 0 0 0 .011.117c.013.076.027.152.043.227v.002a5.011 5.011 0 0 0 4.873 3.928 4.99 4.99 0 0 0 4.985-4.985 4.99 4.99 0 0 0-4.985-4.985h-.017a.8.8 0 0 0-.799.808c0 .446.37.808.816.808a3.374 3.374 0 0 1 3.37 3.37 3.374 3.374 0 0 1-3.37 3.37 3.387 3.387 0 0 1-3.294-2.653 4.283 4.283 0 0 1-.03-.156.66.66 0 0 0-.017-.077.535.535 0 0 0-.006-.079 3.975 3.975 0 0 1-.015-.157.808.808 0 0 0-1.611.116c.005.078.013.155.022.232l.024.114z"></path></g><!----></svg>
