<svg data-v-423bf9ae="" xmlns="http://www.w3.org/2000/svg" viewBox="0 0 533 99" class="iconLeft"><!----><!----><!----><g data-v-423bf9ae="" id="cc4682f9-bb36-4629-a03a-8bb085f11242" fill="#152925" transform="matrix(5.3191490620891875,0,0,5.3191490620891875,112.69518448811112,23.050729445324993)"><path d="M7.28 4.79L7.28-0.42L7.56-0.42L7.56 10.50L7.28 10.50L7.28 5.07L1.40 5.07L1.40 10.50L1.12 10.50L1.12-0.42L1.40-0.42L1.40 4.79L7.28 4.79ZM9.41 8.75L9.41 8.75L9.41 8.61L9.41 8.61Q9.41 8.01 9.60 7.59L9.60 7.59L9.60 7.59Q9.79 7.18 10.16 6.96L10.16 6.96L10.16 6.96Q10.53 6.73 10.86 6.64L10.86 6.64L10.86 6.64Q11.20 6.54 11.69 6.47L11.69 6.47L14.21 6.06L14.21 5.60L14.21 5.60Q14.21 4.49 13.78 3.88L13.78 3.88L13.78 3.88Q13.36 3.28 12.11 3.28L12.11 3.28L12.11 3.28Q10.86 3.28 10.44 3.88L10.44 3.88L10.44 3.88Q10.01 4.49 10.01 5.60L10.01 5.60L9.73 5.60L9.73 5.45L9.73 5.45Q9.73 3.00 12.11 3.00L12.11 3.00L12.11 3.00Q14.49 3.00 14.49 5.45L14.49 5.45L14.49 8.82L14.56 10.50L14.35 10.50L14.24 9.32L14.24 9.32Q13.34 10.58 11.48 10.58L11.48 10.58L11.48 10.58Q10.56 10.58 9.98 10.10L9.98 10.10L9.98 10.10Q9.41 9.62 9.41 8.75ZM11.49 10.30L11.49 10.30L11.49 10.30Q13.43 10.30 14.21 8.85L14.21 8.85L14.21 6.33L11.59 6.75L11.59 6.75Q10.67 6.92 10.18 7.29L10.18 7.29L10.18 7.29Q9.69 7.67 9.69 8.60L9.69 8.60L9.69 8.75L9.69 8.75Q9.69 9.41 10.16 9.86L10.16 9.86L10.16 9.86Q10.63 10.30 11.49 10.30ZM18.83 10.30L18.83 10.30L18.83 10.30Q19.94 10.30 20.57 9.83L20.57 9.83L20.57 9.83Q21.21 9.35 21.21 8.54L21.21 8.54L21.21 8.54Q21.21 7.63 20.64 7.29L20.64 7.29L20.64 7.29Q20.08 6.94 18.69 6.83L18.69 6.83L18.69 6.83Q17.29 6.69 16.77 6.25L16.77 6.25L16.77 6.25Q16.24 5.81 16.24 5.01L16.24 5.01L16.24 4.93L16.24 4.93Q16.24 4.06 16.93 3.53L16.93 3.53L16.93 3.53Q17.63 3.00 18.83 3.00L18.83 3.00L18.83 3.00Q21.42 3.00 21.42 5.40L21.42 5.40L21.42 5.46L21.14 5.46L21.14 5.46Q21.14 4.40 20.61 3.84L20.61 3.84L20.61 3.84Q20.09 3.28 18.83 3.28L18.83 3.28L18.83 3.28Q17.77 3.28 17.14 3.72L17.14 3.72L17.14 3.72Q16.52 4.17 16.52 4.97L16.52 4.97L16.52 4.97Q16.52 5.75 17.02 6.12L17.02 6.12L17.02 6.12Q17.53 6.48 18.97 6.61L18.97 6.61L18.97 6.61Q20.38 6.73 20.94 7.15L20.94 7.15L20.94 7.15Q21.49 7.56 21.49 8.50L21.49 8.50L21.49 8.58L21.49 8.58Q21.49 9.49 20.78 10.04L20.78 10.04L20.78 10.04Q20.06 10.58 18.83 10.58L18.83 10.58L18.83 10.58Q17.39 10.58 16.78 9.93L16.78 9.93L16.78 9.93Q16.17 9.28 16.17 8.32L16.17 8.32L16.17 8.26L16.45 8.26L16.45 8.26Q16.45 10.30 18.83 10.30ZM28.21 5.18L28.21 10.50L27.93 10.50L27.93 5.25L27.93 5.25Q27.93 4.19 27.44 3.73L27.44 3.73L27.44 3.73Q26.95 3.28 25.96 3.28L25.96 3.28L25.96 3.28Q24.26 3.28 23.45 4.58L23.45 4.58L23.45 10.50L23.17 10.50L23.17-0.70L23.45-0.70L23.45 4.17L23.45 4.17Q24.30 3.00 25.98 3.00L25.98 3.00L25.98 3.00Q28.21 3.00 28.21 5.18L28.21 5.18ZM35.39 5.74L32.97 5.74L32.97 10.50L32.69 10.50L32.69-0.42L35.39-0.42L35.39-0.42Q35.99-0.42 36.50-0.28L36.50-0.28L36.50-0.28Q37.02-0.14 37.48 0.17L37.48 0.17L37.48 0.17Q37.95 0.48 38.22 1.08L38.22 1.08L38.22 1.08Q38.49 1.68 38.49 2.52L38.49 2.52L38.49 2.80L38.49 2.80Q38.49 3.64 38.22 4.24L38.22 4.24L38.22 4.24Q37.95 4.84 37.48 5.15L37.48 5.15L37.48 5.15Q37.02 5.46 36.50 5.60L36.50 5.60L36.50 5.60Q35.99 5.74 35.39 5.74L35.39 5.74ZM32.97-0.14L32.97 5.46L35.38 5.46L35.38 5.46Q35.88 5.46 36.32 5.36L36.32 5.36L36.32 5.36Q36.75 5.26 37.20 5.00L37.20 5.00L37.20 5.00Q37.66 4.73 37.93 4.17L37.93 4.17L37.93 4.17Q38.19 3.60 38.19 2.79L38.19 2.79L38.19 2.53L38.19 2.53Q38.19 1.72 37.93 1.15L37.93 1.15L37.93 1.15Q37.66 0.59 37.20 0.32L37.20 0.32L37.20 0.32Q36.75 0.06 36.32-0.04L36.32-0.04L36.32-0.04Q35.88-0.14 35.38-0.14L35.38-0.14L32.97-0.14ZM42.55 3.00L42.55 3.00L42.76 3.01L42.76 3.28L42.63 3.28L42.63 3.28Q41.79 3.28 41.24 3.67L41.24 3.67L41.24 3.67Q40.70 4.06 40.45 4.61L40.45 4.61L40.45 10.50L40.17 10.50L40.17 4.76L40.10 3.08L40.31 3.08L40.40 4.21L40.40 4.21Q41.13 3.00 42.55 3.00ZM49.18 9.62L49.18 9.62L49.18 9.62Q48.43 10.58 47.03 10.58L47.03 10.58L47.03 10.58Q45.63 10.58 44.87 9.62L44.87 9.62L44.87 9.62Q44.11 8.65 44.11 6.93L44.11 6.93L44.11 6.65L44.11 6.65Q44.11 4.93 44.87 3.96L44.87 3.96L44.87 3.96Q45.63 3.00 47.03 3.00L47.03 3.00L47.03 3.00Q48.43 3.00 49.18 3.96L49.18 3.96L49.18 3.96Q49.94 4.93 49.94 6.65L49.94 6.65L49.94 6.93L49.94 6.93Q49.94 8.65 49.18 9.62ZM45.08 9.41L45.08 9.41L45.08 9.41Q45.77 10.30 47.03 10.30L47.03 10.30L47.03 10.30Q48.29 10.30 48.97 9.41L48.97 9.41L48.97 9.41Q49.66 8.51 49.66 6.93L49.66 6.93L49.66 6.65L49.66 6.65Q49.66 5.07 48.97 4.17L48.97 4.17L48.97 4.17Q48.29 3.28 47.03 3.28L47.03 3.28L47.03 3.28Q45.77 3.28 45.08 4.17L45.08 4.17L45.08 4.17Q44.39 5.07 44.39 6.65L44.39 6.65L44.39 6.93L44.39 6.93Q44.39 8.51 45.08 9.41ZM52.60 0.98L52.60 3.08L55.19 3.08L55.19 3.36L52.60 3.36L52.60 8.61L52.60 8.61Q52.60 9.58 53.00 9.94L53.00 9.94L53.00 9.94Q53.41 10.30 54.21 10.30L54.21 10.30L54.21 10.30Q54.77 10.30 55.05 10.16L55.05 10.16L55.05 10.44L55.05 10.44Q54.70 10.58 54.15 10.58L54.15 10.58L54.15 10.58Q52.32 10.58 52.32 8.69L52.32 8.69L52.32 3.36L51.13 3.36L51.13 3.08L52.32 3.08L52.32 0.98L52.60 0.98ZM61.59 9.62L61.59 9.62L61.59 9.62Q60.83 10.58 59.43 10.58L59.43 10.58L59.43 10.58Q58.03 10.58 57.27 9.62L57.27 9.62L57.27 9.62Q56.52 8.65 56.52 6.93L56.52 6.93L56.52 6.65L56.52 6.65Q56.52 4.93 57.27 3.96L57.27 3.96L57.27 3.96Q58.03 3.00 59.43 3.00L59.43 3.00L59.43 3.00Q60.83 3.00 61.59 3.96L61.59 3.96L61.59 3.96Q62.34 4.93 62.34 6.65L62.34 6.65L62.34 6.93L62.34 6.93Q62.34 8.65 61.59 9.62ZM57.48 9.41L57.48 9.41L57.48 9.41Q58.17 10.30 59.43 10.30L59.43 10.30L59.43 10.30Q60.69 10.30 61.38 9.41L61.38 9.41L61.38 9.41Q62.06 8.51 62.06 6.93L62.06 6.93L62.06 6.65L62.06 6.65Q62.06 5.07 61.38 4.17L61.38 4.17L61.38 4.17Q60.69 3.28 59.43 3.28L59.43 3.28L59.43 3.28Q58.17 3.28 57.48 4.17L57.48 4.17L57.48 4.17Q56.80 5.07 56.80 6.65L56.80 6.65L56.80 6.93L56.80 6.93Q56.80 8.51 57.48 9.41ZM63.88 6.93L63.88 6.65L63.88 6.65Q63.88 4.98 64.62 3.99L64.62 3.99L64.62 3.99Q65.37 3.00 66.86 3.00L66.86 3.00L66.86 3.00Q68.18 3.00 68.80 3.75L68.80 3.75L68.80 3.75Q69.41 4.49 69.41 5.53L69.41 5.53L69.41 5.67L69.13 5.67L69.13 5.67Q69.13 4.59 68.58 3.93L68.58 3.93L68.58 3.93Q68.03 3.28 66.86 3.28L66.86 3.28L66.86 3.28Q65.53 3.28 64.85 4.18L64.85 4.18L64.85 4.18Q64.16 5.08 64.16 6.65L64.16 6.65L64.16 6.93L64.16 6.93Q64.16 8.50 64.85 9.40L64.85 9.40L64.85 9.40Q65.53 10.30 66.86 10.30L66.86 10.30L66.86 10.30Q68.03 10.30 68.58 9.70L68.58 9.70L68.58 9.70Q69.13 9.09 69.13 8.05L69.13 8.05L69.41 8.05L69.41 8.19L69.41 8.19Q69.41 9.17 68.80 9.88L68.80 9.88L68.80 9.88Q68.18 10.58 66.86 10.58L66.86 10.58L66.86 10.58Q65.37 10.58 64.62 9.59L64.62 9.59L64.62 9.59Q63.88 8.60 63.88 6.93L63.88 6.93ZM76.02 9.62L76.02 9.62L76.02 9.62Q75.26 10.58 73.86 10.58L73.86 10.58L73.86 10.58Q72.46 10.58 71.71 9.62L71.71 9.62L71.71 9.62Q70.95 8.65 70.95 6.93L70.95 6.93L70.95 6.65L70.95 6.65Q70.95 4.93 71.71 3.96L71.71 3.96L71.71 3.96Q72.46 3.00 73.86 3.00L73.86 3.00L73.86 3.00Q75.26 3.00 76.02 3.96L76.02 3.96L76.02 3.96Q76.78 4.93 76.78 6.65L76.78 6.65L76.78 6.93L76.78 6.93Q76.78 8.65 76.02 9.62ZM71.92 9.41L71.92 9.41L71.92 9.41Q72.60 10.30 73.86 10.30L73.86 10.30L73.86 10.30Q75.12 10.30 75.81 9.41L75.81 9.41L75.81 9.41Q76.50 8.51 76.50 6.93L76.50 6.93L76.50 6.65L76.50 6.65Q76.50 5.07 75.81 4.17L75.81 4.17L75.81 4.17Q75.12 3.28 73.86 3.28L73.86 3.28L73.86 3.28Q72.60 3.28 71.92 4.17L71.92 4.17L71.92 4.17Q71.23 5.07 71.23 6.65L71.23 6.65L71.23 6.93L71.23 6.93Q71.23 8.51 71.92 9.41ZM78.95 10.50L78.67 10.50L78.67-0.70L78.95-0.70L78.95 10.50Z"></path></g><defs data-v-423bf9ae=""><linearGradient data-v-423bf9ae="" gradientTransform="rotate(25)" id="62312c07-78b4-4ac5-b2e8-9b8f0eb4b75e" x1="0%" y1="0%" x2="100%" y2="0%"><stop data-v-423bf9ae="" offset="0%" style="stop-color: rgb(4, 24, 4); stop-opacity: 1;"></stop><stop data-v-423bf9ae="" offset="100%" style="stop-opacity: 1;"></stop></linearGradient></defs><g data-v-423bf9ae="" id="95a267b1-0294-49bb-853a-cbe6716afb84" transform="matrix(1.0469779120551215,0,0,1.0469779120551215,-218.1394757828727,-218.1404541374378)" stroke="none" fill="url(#62312c07-78b4-4ac5-b2e8-9b8f0eb4b75e)"><path d="M300.597 275.384v-9.805a.808.808 0 0 0-.808-.808h-13.294a32.032 32.032 0 0 0 1.661-8.021h5.041a3.331 3.331 0 0 0 3.224 2.519 3.33 3.33 0 0 0 3.327-3.327 3.33 3.33 0 0 0-3.327-3.327 3.33 3.33 0 0 0-3.224 2.52h-4.959a32.302 32.302 0 0 0-.744-7.809h6.408a.808.808 0 0 0 .808-.808v-8.261a3.332 3.332 0 0 0 2.52-3.224 3.331 3.331 0 0 0-3.327-3.327 3.33 3.33 0 0 0-3.327 3.327 3.329 3.329 0 0 0 2.52 3.224v7.454h-6.001c-2.84-10.294-10.664-18.542-20.704-21.967v-10.722h8.996a3.33 3.33 0 0 0 3.223 2.519 3.33 3.33 0 0 0 3.327-3.327 3.33 3.33 0 0 0-3.327-3.326 3.33 3.33 0 0 0-3.223 2.517h-9.806a.808.808 0 0 0-.808.808v11.028a32.078 32.078 0 0 0-8.021-1.203v-3.233a3.33 3.33 0 0 0 2.519-3.224 3.33 3.33 0 0 0-3.326-3.327 3.331 3.331 0 0 0-3.328 3.327 3.33 3.33 0 0 0 2.52 3.224v3.235a32.103 32.103 0 0 0-7.81 1.175v-5.114a.808.808 0 0 0-.808-.808h-8.26a3.33 3.33 0 0 0-3.224-2.52c-1.834 0-3.327 1.493-3.327 3.327s1.493 3.327 3.327 3.327a3.33 3.33 0 0 0 3.224-2.519h7.453v4.803c-10.055 3.395-17.904 11.62-20.775 21.902h-11.914v-8.996a3.33 3.33 0 0 0 2.519-3.224c0-1.834-1.492-3.326-3.327-3.326s-3.326 1.492-3.326 3.327a3.329 3.329 0 0 0 2.519 3.223v9.804c0 .446.362.808.808.808h12.316a32.24 32.24 0 0 0-.762 8.022h-4.964a3.329 3.329 0 0 0-3.223-2.517c-1.834 0-3.327 1.492-3.327 3.326s1.492 3.328 3.327 3.328a3.328 3.328 0 0 0 3.223-2.52h5.052a32.08 32.08 0 0 0 1.616 7.808H218.1a.808.808 0 0 0-.808.808v8.262a3.331 3.331 0 0 0-2.519 3.224c0 1.835 1.492 3.327 3.327 3.327s3.327-1.492 3.327-3.327a3.33 3.33 0 0 0-2.52-3.224v-7.454h7.167c3.493 8.67 10.647 15.485 19.538 18.519v14.171h-8.996a3.33 3.33 0 0 0-3.223-2.52 3.332 3.332 0 0 0-3.327 3.328 3.33 3.33 0 0 0 3.327 3.326 3.329 3.329 0 0 0 3.223-2.518h9.804a.81.81 0 0 0 .808-.81V285.31a32.087 32.087 0 0 0 8.023 1.204v6.681a3.29 3.29 0 0 0-1.545.872 3.302 3.302 0 0 0-.974 2.353 3.33 3.33 0 0 0 3.327 3.326 3.33 3.33 0 0 0 3.327-3.326 3.33 3.33 0 0 0-2.519-3.224v-6.685a32.127 32.127 0 0 0 7.807-1.174v8.562c0 .161.049.31.13.436.004.005.006.011.009.016.005.008.012.014.018.021a.806.806 0 0 0 .653.337h.001l8.259-.002a3.332 3.332 0 0 0 3.225 2.521 3.33 3.33 0 0 0 3.327-3.327 3.33 3.33 0 0 0-3.327-3.327 3.33 3.33 0 0 0-3.224 2.519h-7.453v-8.252c8.903-3.006 16.075-9.799 19.596-18.453h13.094v8.996a3.331 3.331 0 0 0-2.52 3.224 3.33 3.33 0 0 0 3.327 3.327 3.33 3.33 0 0 0 3.326-3.327 3.33 3.33 0 0 0-2.518-3.224zm-4.176-21.154c.943 0 1.712.768 1.712 1.712s-.769 1.711-1.712 1.711a1.714 1.714 0 0 1-1.711-1.706v-.005-.005a1.713 1.713 0 0 1 1.711-1.707zm-4.23-19.198c0-.943.768-1.711 1.712-1.711.943 0 1.712.768 1.712 1.711 0 .944-.769 1.712-1.712 1.712a1.713 1.713 0 0 1-1.712-1.712zm-57.156-15.222a1.714 1.714 0 0 1-1.712-1.711c0-.944.768-1.712 1.712-1.712.943 0 1.711.768 1.711 1.712s-.768 1.711-1.711 1.711zm-24.532 13.582a1.712 1.712 0 1 1 1.711 1.711 1.712 1.712 0 0 1-1.711-1.711zm9.309 43.575c0 .944-.768 1.712-1.711 1.712s-1.711-.768-1.711-1.712c0-.943.768-1.712 1.711-1.712a1.714 1.714 0 0 1 1.711 1.712zm13.582 24.531a1.714 1.714 0 0 1-1.711-1.711c0-.944.768-1.712 1.711-1.712.944 0 1.711.769 1.711 1.712s-.767 1.711-1.711 1.711zm45.215-90.996c.944 0 1.712.767 1.712 1.71 0 .944-.768 1.712-1.712 1.712a1.712 1.712 0 0 1 0-3.422zm-24.378 5.077c0-.943.768-1.711 1.712-1.711.943 0 1.711.768 1.711 1.711s-.768 1.711-1.711 1.711a1.712 1.712 0 0 1-1.712-1.711zm-38.65 42.191a1.714 1.714 0 0 1-1.711-1.712c0-.943.768-1.711 1.711-1.711.943 0 1.711.768 1.711 1.711 0 .944-.767 1.712-1.711 1.712zm42.19 38.65c0 .944-.768 1.712-1.711 1.712a1.714 1.714 0 0 1-1.21-2.922 1.698 1.698 0 0 1 1.209-.501h.002c.943 0 1.71.767 1.71 1.711zm19.198-4.231c.943 0 1.711.768 1.711 1.712 0 .943-.768 1.712-1.711 1.712a1.715 1.715 0 0 1-1.712-1.712c0-.944.768-1.712 1.712-1.712zm-20.967-7.28c-16.892 0-30.634-13.742-30.634-30.634 0-16.891 13.742-30.634 30.634-30.634 16.891 0 30.633 13.743 30.633 30.634 0 16.892-13.742 30.634-30.633 30.634zm43.786-4.591c-.943 0-1.712-.768-1.712-1.711s.769-1.711 1.712-1.711 1.711.768 1.711 1.711-.767 1.711-1.711 1.711z"></path><path d="M279.366 266.809a.808.808 0 0 0-1.104.295c-3.269 5.659-8.495 9.826-14.718 11.734l-.008.003-.184.056c-.033.01-.064.021-.096.034a.897.897 0 0 0-.097.022l-.194.055a.808.808 0 1 0 .437 1.555l.204-.058a.88.88 0 0 0 .102-.036.975.975 0 0 0 .104-.024c.069-.021.138-.041.206-.063l.009-.002c6.609-2.03 12.162-6.458 15.634-12.469a.807.807 0 0 0-.295-1.102zM279.646 240.612a.807.807 0 1 0-1.398.81 25.684 25.684 0 0 1 3.441 12.854c0 1.943-.217 3.879-.646 5.756l-.001.002-.045.195a.787.787 0 0 0-.018.099.715.715 0 0 0-.029.096l-.05.197a.807.807 0 1 0 1.567.393l.05-.204a.647.647 0 0 0 .02-.105.683.683 0 0 0 .031-.103l.048-.204v-.002l.001-.003v-.002a27.41 27.41 0 0 0 .688-6.115 27.284 27.284 0 0 0-3.659-13.664zM256.03 279.964h-.028a25.598 25.598 0 0 1-17.49-6.873l-.145-.136a.7.7 0 0 0-.079-.065.678.678 0 0 0-.068-.074l-.144-.14a.806.806 0 0 0-1.142.015.806.806 0 0 0 .014 1.142l.154.149c.026.024.054.047.082.068a.865.865 0 0 0 .072.077 27.21 27.21 0 0 0 18.746 7.452h.028a.807.807 0 1 0 0-1.615zM230.313 254.275c0-1.935.216-3.863.642-5.731l.045-.195a.835.835 0 0 0 .017-.1.975.975 0 0 0 .03-.096l.048-.194a.807.807 0 1 0-1.565-.397l-.052.208a.965.965 0 0 0-.019.105 1.098 1.098 0 0 0-.031.102l-.047.202-.001.005a27.484 27.484 0 0 0-.682 6.09c0 4.814 1.271 9.548 3.674 13.688a.807.807 0 1 0 1.396-.811 25.663 25.663 0 0 1-3.455-12.876zM232.624 241.766a.806.806 0 0 0 1.103-.297c3.263-5.662 8.485-9.835 14.706-11.75h.001l.191-.058a.7.7 0 0 0 .094-.035.722.722 0 0 0 .098-.022l.193-.055a.808.808 0 0 0-.439-1.555l-.205.059a.717.717 0 0 0-.101.037.78.78 0 0 0-.104.024l-.198.06-.006.001h-.001c-6.612 2.036-12.162 6.471-15.629 12.487a.808.808 0 0 0 .297 1.104zM255.945 228.587h.056a25.603 25.603 0 0 1 17.51 6.891l.146.137a.96.96 0 0 0 .078.065c.021.025.043.05.067.074l.146.141a.804.804 0 0 0 1.142-.015.807.807 0 0 0-.016-1.142l-.152-.147a.881.881 0 0 0-.082-.069.862.862 0 0 0-.071-.078l-.151-.143-.004-.003h-.001l-.002-.001a27.213 27.213 0 0 0-18.613-7.324h-.052a.808.808 0 0 0-.001 1.614zM277.092 254.275c0 4.166-1.213 8.194-3.507 11.649l-.002.003-.109.163a.671.671 0 0 0-.051.086c-.021.024-.042.05-.062.078l-.113.163a.807.807 0 1 0 1.32.929l.122-.174c.021-.029.038-.061.055-.092a.774.774 0 0 0 .064-.084 5.58 5.58 0 0 0 .12-.179l.001-.001a22.602 22.602 0 0 0 3.776-12.543 22.68 22.68 0 0 0-1.109-7.028.808.808 0 0 0-1.537.5 21.04 21.04 0 0 1 1.032 6.53zM249.315 275.98l.204.062c.035.011.07.019.104.023a.66.66 0 0 0 .1.036l.198.056a.014.014 0 0 0 .006.002l.001.001c1.968.545 4.011.82 6.072.82 4.842 0 9.464-1.503 13.364-4.347.36-.264.439-.769.177-1.129s-.769-.439-1.129-.177A20.923 20.923 0 0 1 256 275.364c-1.915 0-3.812-.256-5.64-.762l-.19-.054a.69.69 0 0 0-.098-.022.732.732 0 0 0-.093-.033l-.188-.058a.808.808 0 0 0-.476 1.545zM248.635 232.792l-.2.07a.78.78 0 0 0-.098.042.656.656 0 0 0-.102.03l-.189.069-.011.004c-6.436 2.412-11.537 7.754-13.646 14.29a.808.808 0 1 0 1.538.496c1.958-6.067 6.69-11.027 12.663-13.269l.012-.004.185-.068a.946.946 0 0 0 .092-.04.846.846 0 0 0 .095-.027l.188-.065a.807.807 0 1 0-.527-1.528zM242.679 272.664a.807.807 0 1 0 .949-1.308c-5.245-3.806-8.414-9.689-8.697-16.143v-.013l-.008-.196a.792.792 0 0 0-.009-.099.806.806 0 0 0 .003-.099l-.004-.198a.808.808 0 0 0-1.615.025l.004.212a.928.928 0 0 0 .009.106.92.92 0 0 0-.003.105c.002.067.004.133.008.2v.013c.301 6.954 3.714 13.294 9.363 17.395zM255.952 233.185h.049c6.469 0 12.49 2.908 16.521 7.978l.001.002.122.155c.021.026.043.051.065.074a.863.863 0 0 0 .056.083l.119.158a.805.805 0 0 0 1.13.16.807.807 0 0 0 .16-1.131l-.128-.17a.756.756 0 0 0-.07-.08.72.72 0 0 0-.06-.088l-.126-.16-.006-.006c-4.338-5.459-10.82-8.59-17.79-8.59h-.044a.808.808 0 1 0 .001 1.615zM273.936 254.261c0-.446-.361-.801-.808-.801s-.808.368-.808.814c0 6.242-3.638 12.021-9.269 14.722l-.173.082c-.029.014-.058.028-.084.045a1.08 1.08 0 0 0-.089.034l-.175.078a.808.808 0 0 0 .649 1.479l.19-.085a.832.832 0 0 0 .093-.05.67.67 0 0 0 .099-.038l.181-.085.006-.003.001-.001.003-.001c6.186-2.969 10.183-9.318 10.183-16.178v-.012h.001z"></path><path d="M255.948 237.956h.053c6.247 0 12.028 3.643 14.728 9.28l.082.173a.828.828 0 0 0 .045.083c.009.03.021.06.034.09l.077.173a.806.806 0 1 0 1.48-.645l-.085-.192a.893.893 0 0 0-.049-.092.932.932 0 0 0-.038-.1l-.089-.188-.001-.002c-2.967-6.194-9.319-10.196-16.184-10.196h-.058a.807.807 0 0 0 .005 1.616zM248.798 237.846l-.192.085a.734.734 0 0 0-.092.049.812.812 0 0 0-.099.039l-.187.089-.001.001c-6.172 2.973-10.16 9.319-10.16 16.167v.04a.808.808 0 1 0 1.616 0v-.04c0-6.231 3.629-12.006 9.246-14.711l.173-.082a.602.602 0 0 0 .083-.045.74.74 0 0 0 .089-.034l.174-.078a.808.808 0 0 0-.65-1.48zM241.286 261.339c-.001 0-.001-.001 0 0a9.012 9.012 0 0 1-.083-.174.952.952 0 0 0-.045-.084.726.726 0 0 0-.034-.088l-.078-.176a.808.808 0 1 0-1.479.65l.084.189c.015.032.032.063.05.094a.972.972 0 0 0 .038.097l.088.187.001.003c2.971 6.18 9.319 10.173 16.172 10.173h.026a.808.808 0 1 0 0-1.616h-.027c-6.233 0-12.009-3.633-14.713-9.255zM250.83 264.942c-.057-.027-.112-.055-.168-.083a.671.671 0 0 0-.083-.036.706.706 0 0 0-.08-.048l-.164-.088a.808.808 0 1 0-.773 1.418l.186.1a.686.686 0 0 0 .096.043.784.784 0 0 0 .093.055 16.013 16.013 0 0 0 .189.094 13.337 13.337 0 0 0 5.875 1.346c4.799 0 9.271-2.585 11.672-6.745a.808.808 0 1 0-1.4-.808 11.895 11.895 0 0 1-10.272 5.938 11.752 11.752 0 0 1-5.171-1.186z"></path><path d="M255.961 242.424h.041c6.195 0 11.388 4.835 11.822 11.007l.012.188c.002.03.005.061.01.09a.72.72 0 0 0-.001.093l.006.185a.807.807 0 0 0 .807.788h.02a.808.808 0 0 0 .788-.827l-.006-.209a.847.847 0 0 0-.012-.104.763.763 0 0 0 .001-.107l-.013-.207v-.002c-.493-7.015-6.394-12.509-13.439-12.509h-.035a.808.808 0 0 0-.001 1.614zM248.961 242.793l-.178.111a.668.668 0 0 0-.085.063.848.848 0 0 0-.093.052l-.171.115-.002.001a13.467 13.467 0 0 0-5.897 11.14c0 2.377.628 4.714 1.816 6.759a.809.809 0 0 0 1.397-.812 11.855 11.855 0 0 1 3.593-15.751l.156-.104a.995.995 0 0 0 .073-.055.641.641 0 0 0 .081-.045l.157-.098a.807.807 0 1 0-.847-1.376z"></path><path d="M261.809 258.957a8.016 8.016 0 0 1-.111.135.817.817 0 0 0-.052.068c-.022.021-.043.041-.063.063-.037.044-.076.086-.115.128a.808.808 0 1 0 1.181 1.103l.145-.159a.835.835 0 0 0 .064-.083.792.792 0 0 0 .075-.078c.045-.054.09-.107.134-.163l.001-.001a9.093 9.093 0 0 0 2.009-5.694c0-5.004-4.07-9.075-9.082-9.075h-.025a.808.808 0 0 0 0 1.616h.033c4.113 0 7.459 3.346 7.459 7.459a7.387 7.387 0 0 1-1.653 4.681zM249.342 248.111l-.142.157a.858.858 0 0 0-.065.084.927.927 0 0 0-.075.078l-.134.163-.001.001a9.104 9.104 0 0 0-1.998 5.681c0 5.004 4.071 9.074 9.074 9.074h.017a.8.8 0 0 0 .8-.808.816.816 0 0 0-.816-.808c-4.113 0-7.459-3.346-7.459-7.459 0-1.718.568-3.332 1.641-4.668l.001-.001.112-.137a.817.817 0 0 0 .052-.068c.021-.02.042-.041.062-.063l.118-.13a.808.808 0 1 0-1.187-1.096z"></path><path d="M251.073 254.987a.772.772 0 0 0 .011.117c.013.076.027.152.043.227v.002a5.011 5.011 0 0 0 4.873 3.928 4.99 4.99 0 0 0 4.985-4.985 4.99 4.99 0 0 0-4.985-4.985h-.017a.8.8 0 0 0-.799.808c0 .446.37.808.816.808a3.374 3.374 0 0 1 3.37 3.37 3.374 3.374 0 0 1-3.37 3.37 3.387 3.387 0 0 1-3.294-2.653 4.283 4.283 0 0 1-.03-.156.66.66 0 0 0-.017-.077.535.535 0 0 0-.006-.079 3.975 3.975 0 0 1-.015-.157.808.808 0 0 0-1.611.116c.005.078.013.155.022.232l.024.114z"></path></g><!----></svg>
